# xmcd
#
# Track frame offsets: 
#        150
#        20356
#        40898
#        59639
#        75202
#        96066
#        115494
#        130886
#        157002
#        169483
#        187192
#
# Disc length: 2751 seconds
#
# Revision: 0
# Processed by: cddbd v1.5.2PL0 Copyright (c) Steve Scherf et al.
# Submitted via: ExactAudioCopyFreeDBPlugin 1.0
#
DISCID=940abd0b
DTITLE=Carrie Melton and The Minor Fall - Heartstrings
DYEAR=2011
DGENRE=Country
TTITLE0=Do You Feel it Too?
TTITLE1=Heartstrings
TTITLE2=The Shore
TTITLE3=Love Will Burn
TTITLE4=Infinite Hiding
TTITLE5=Lovely
TTITLE6=Skeleton Trees
TTITLE7=All Too Familiar (Waiting for You..)
TTITLE8=When the Day is Through
TTITLE9=Queen of Hearts
TTITLE10=Sink or Swim (Acoustic Solo 2008)
EXTD=
EXTT0=
EXTT1=
EXTT2=
EXTT3=
EXTT4=
EXTT5=
EXTT6=
EXTT7=
EXTT8=
EXTT9=
EXTT10=
PLAYORDER=
